<?xml version="1.0" encoding="UTF-8"?>
<svg id="Layer_1" xmlns="http://www.w3.org/2000/svg" version="1.1" viewBox="0 0 256 256">
  <!-- Generator: Adobe Illustrator 29.8.1, SVG Export Plug-In . SVG Version: 2.1.1 Build 2)  -->
  <defs>
    <style>
      .st0 {
        fill: #fdfeff;
      }

      .st1 {
        fill: #928c8e;
      }

      .st2 {
        fill: #f37121;
      }
    </style>
  </defs>
  <path class="st1" d="M127.8,256C57.2,256-.2,198.6-.2,128S57.2,0,127.8,0,255.8,57.4,255.8,128s-57.4,128-128,128ZM127.8,11.4C63.5,11.4,11.2,63.7,11.2,128s52.3,116.6,116.6,116.6,116.6-52.3,116.6-116.6S192.1,11.4,127.8,11.4Z"/>
  <path d="M127.8,5.7C60.3,5.7,5.5,60.5,5.5,128s54.9,122.3,122.3,122.3,122.3-54.9,122.3-122.3S195.2,5.7,127.8,5.7Z"/>
  <path class="st0" d="M72.4,64.2v53.4l2.1,2.1h14.2l2.1-2.1v-53.4l-2.1-9.1h23.1l-2.3,9.1v129.6l2.3,8.9h-23.1l2.1-8.9v-53.4l-2.1-2.1h-14.2l-2.1,2.1v53.4l2.3,8.9h-22.9l2.3-8.9V64.2l-2.3-9.1h22.9l-2.3,9.1Z"/>
  <path class="st0" d="M168,202.7l1.8-10.1-19.8-124.8-4.3-12.8h22.9l-1.4,6.2,13.2,90.2,13.2-90.2-1.6-6.2h23.1l-4.3,12.6-19.4,125,1.8,10.1h-25.3Z"/>
  <polygon class="st2" points="121.5 94.3 115.9 137.1 133.6 129.8 124.5 180.4 151.7 112.3 130 120.9 145 84.6 121.5 94.3"/>
</svg>