<?xml version="1.0" encoding="UTF-8"?>
<svg id="Layer_1" xmlns="http://www.w3.org/2000/svg" version="1.1" viewBox="0 0 560.2 148.8">
  <!-- Generator: Adobe Illustrator 29.6.1, SVG Export Plug-In . SVG Version: 2.1.1 Build 9)  -->
  <defs>
    <style>
      .st0 {
        fill: #fff;
      }

      .st1 {
        fill: #928c8e;
      }

      .st2 {
        fill: #f37121;
      }
    </style>
  </defs>
  <g>
    <g>
      <path class="st0" d="M15.5,6.9v40.1l1.6,1.6h10.6l1.6-1.6V6.9l-1.6-6.9h17.3l-1.7,6.9v97.2l1.7,6.7h-17.3l1.6-6.7v-40.1l-1.6-1.6h-10.6l-1.6,1.6v40.1l1.8,6.7H0l1.7-6.7V6.9L0,0h17.2l-1.8,6.9Z"/>
      <path class="st0" d="M55.1,104.1V6.9l-1.7-6.9h17.2l-1.8,6.9v97.2l1.8,6.7h-17.2l1.7-6.7Z"/>
      <path class="st0" d="M86.9,0h27.7l6.9,6.9v14l1.7,6.7h-17.3l1.9-6.7v-5.5l-1.6-1.6h-10.6l-1.6,1.6v79.9l1.6,1.6h10.6l1.6-1.6v-25.9h-3.9l-3.1-14h22.5l-1.7,7v41.7l-6.9,6.9h-27.7l-7-6.9V6.9l7-6.9Z"/>
      <path class="st0" d="M147.1,6.9v40.1l1.6,1.6h10.6l1.6-1.6V6.9l-1.6-6.9h17.3l-1.7,6.9v97.2l1.7,6.7h-17.3l1.6-6.7v-40.1l-1.6-1.6h-10.6l-1.6,1.6v40.1l1.8,6.7h-17.2l1.7-6.7V6.9l-1.7-6.9h17.2l-1.8,6.9Z"/>
      <path class="st0" d="M230.5,110.8l1.3-7.6-14.9-93.6-3.2-9.6h17.2l-1,4.7,9.9,67.6,9.9-67.6-1.2-4.7h17.3l-3.2,9.5-14.6,93.7,1.3,7.6h-19Z"/>
      <path class="st0" d="M306.6,110.8h-27.7l-7-6.9V6.9l7-6.9h27.7l6.9,6.9v97.1l-6.9,6.9ZM287.4,96.9h10.5l1.6-1.6V15.6l-1.6-1.6h-10.5l-1.6,1.6v79.7l1.6,1.6Z"/>
      <path class="st0" d="M324.5,104.1V6.9l-1.7-6.9h17.2l-1.6,6.9v88.5l1.6,1.6h19.7l7.1-1.6-2.5,15.5h-41.5l1.7-6.7Z"/>
      <path class="st0" d="M395.1,14l-1.6,1.6v88.5l1.8,6.7h-17.3l1.7-6.7V15.6l-1.6-1.6h-9.2l-7.1,1.6,2.5-15.6h44.5l2.6,15.6-7.3-1.6h-8.9Z"/>
      <path class="st0" d="M443.8,106.1l-3.6-21.1-1.9-1.9h-12.1l-1.9,1.9-3.5,21.1,1,4.7h-17.2l3.2-9.5,16.3-95.1-1.5-6.3h19l-1.5,6.3,16.5,94.9,3.4,9.6h-17.3l1.2-4.7ZM428.4,69.1h7.4l1.5-1.2-5.1-29.6-5.1,29.6,1.3,1.2Z"/>
      <path class="st0" d="M471.4,0h27.7l6.9,6.9v14l1.7,6.7h-17.3l1.9-6.7v-5.5l-1.6-1.6h-10.6l-1.6,1.6v79.9l1.6,1.6h10.6l1.6-1.6v-25.9h-3.9l-3.1-14h22.5l-1.7,7v41.7l-6.9,6.9h-27.7l-7-6.9V6.9l7-6.9Z"/>
      <path class="st0" d="M517.9,6.7l-1.7-6.7h41.5l2.5,15.3-7.1-1.6h-19.8l-1.6,1.6v31.5l1.6,1.6h5.5l6.9-1.7v17.3l-6.9-1.7h-5.5l-1.6,1.6v31.3l1.6,1.6h19.8l7.1-1.6-2.5,15.6h-41.5l1.7-6.9V6.7Z"/>
    </g>
    <polygon class="st2" points="188.5 28.3 183.9 63.1 198.4 57.1 190.9 98.3 213 42.9 195.4 49.9 207.6 20.4 188.5 28.3"/>
  </g>
  <g>
    <path class="st1" d="M105.4,129.4c-1.1-1-2.2-1.7-3.3-2.2-1.1-.5-2.3-.7-3.6-.7-2.6,0-4.7.8-6.3,2.4s-2.4,3.8-2.4,6.5.7,4.8,2.2,6.3c1.5,1.6,3.4,2.3,6,2.3s2.8-.2,4-.7c1.2-.5,2.4-1.2,3.4-2.2v5.5c-1.2.7-2.3,1.2-3.6,1.5-1.2.3-2.5.5-3.9.5-4,0-7.2-1.3-9.7-3.8-2.5-2.5-3.8-5.7-3.8-9.5s1.3-7,3.8-9.5c2.5-2.5,5.8-3.8,9.8-3.8s2.6.1,3.9.4c1.3.3,2.5.7,3.7,1.3l-.2,5.4Z"/>
    <path class="st1" d="M128.4,148.1v-25.3h5.3v20.7h8.5v4.6h-13.8Z"/>
    <path class="st1" d="M160.6,148.1l9.4-25.3h6.1l9.6,25.3h-6l-2-5.4h-9.6l-1.7,5.4h-5.7ZM176.4,138.5l-2.8-8.2c0-.2-.2-.7-.3-1.2-.1-.6-.3-1.3-.4-2.2-.1.8-.3,1.6-.4,2.2-.1.7-.2,1.1-.3,1.3l-2.7,8.1h6.9Z"/>
    <path class="st1" d="M204.7,144.9l2.9-3.4c.4.9,1,1.7,1.8,2.2s1.8.8,2.8.8,2.2-.3,2.9-.9,1.1-1.4,1.1-2.4-1.2-2.4-3.6-3.6c-.8-.4-1.4-.7-1.8-.9-2.2-1.2-3.7-2.3-4.5-3.4-.8-1.1-1.3-2.4-1.3-3.9s.8-3.8,2.4-5.1c1.6-1.3,3.7-2,6.3-2s2.8.3,3.9.8c1.1.5,2.1,1.4,2.9,2.5l-3.1,3.1c-.4-.7-.9-1.3-1.5-1.7s-1.4-.5-2.2-.5-1.9.3-2.5.8-1,1.2-1,2.1c0,1.3,1.3,2.6,3.8,3.7.5.2.9.4,1.2.5,2.1,1,3.7,2.1,4.7,3.3,1,1.2,1.5,2.6,1.5,4.2,0,2.4-.8,4.3-2.4,5.7s-3.7,2.1-6.4,2.1-3.5-.3-4.9-1c-1.4-.7-2.4-1.6-3-2.9Z"/>
    <path class="st1" d="M242.2,144.9l2.9-3.4c.4.9,1,1.7,1.8,2.2s1.8.8,2.8.8,2.2-.3,2.9-.9,1.1-1.4,1.1-2.4-1.2-2.4-3.6-3.6c-.8-.4-1.4-.7-1.8-.9-2.2-1.2-3.7-2.3-4.5-3.4-.8-1.1-1.3-2.4-1.3-3.9s.8-3.8,2.4-5.1c1.6-1.3,3.7-2,6.3-2s2.8.3,3.9.8c1.1.5,2.1,1.4,2.9,2.5l-3.1,3.1c-.4-.7-.9-1.3-1.5-1.7s-1.4-.5-2.2-.5-1.9.3-2.5.8-1,1.2-1,2.1c0,1.3,1.3,2.6,3.8,3.7.5.2.9.4,1.2.5,2.1,1,3.7,2.1,4.7,3.3,1,1.2,1.5,2.6,1.5,4.2,0,2.4-.8,4.3-2.4,5.7s-3.7,2.1-6.4,2.1-3.5-.3-4.9-1c-1.4-.7-2.4-1.6-3-2.9Z"/>
    <path class="st1" d="M281.4,148.1v-25.3h5.3v25.3h-5.3Z"/>
    <path class="st1" d="M310.4,148.1v-25.3h14.6v4.6h-9.3v5.2h9.3v4.6h-9.3v10.9h-5.3Z"/>
    <path class="st1" d="M347.2,148.1v-25.3h5.3v25.3h-5.3Z"/>
    <path class="st1" d="M376.2,148.1v-25.3h14.6v4.6h-9.3v5.2h9.3v4.6h-9.3v6.3h9.3v4.6h-14.6Z"/>
    <path class="st1" d="M414,148.1v-25.3h6.8c2.7,0,4.8.2,6.3.6,1.5.4,2.9,1,4.1,1.9,1.5,1.1,2.6,2.6,3.4,4.3s1.2,3.7,1.2,5.9-.4,4.2-1.2,6-1.9,3.2-3.5,4.3c-1.1.8-2.4,1.4-3.8,1.8s-3.4.5-6.1.5h-7.2ZM419.3,143.6h2.9c2.8,0,4.8-.6,6.1-1.9s1.9-3.3,1.9-6.1-.6-4.8-1.9-6.1-3.3-1.9-6.1-1.9h-2.9v16.1Z"/>
    <path class="st1" d="M456.6,144.9l2.9-3.4c.4.9,1,1.7,1.8,2.2s1.8.8,2.8.8,2.2-.3,2.9-.9,1.1-1.4,1.1-2.4-1.2-2.4-3.6-3.6c-.8-.4-1.4-.7-1.8-.9-2.2-1.2-3.7-2.3-4.5-3.4-.8-1.1-1.3-2.4-1.3-3.9s.8-3.8,2.4-5.1c1.6-1.3,3.7-2,6.3-2s2.8.3,3.9.8c1.1.5,2.1,1.4,2.9,2.5l-3.1,3.1c-.4-.7-.9-1.3-1.5-1.7s-1.4-.5-2.2-.5-1.9.3-2.5.8-1,1.2-1,2.1c0,1.3,1.3,2.6,3.8,3.7.5.2.9.4,1.2.5,2.1,1,3.7,2.1,4.7,3.3,1,1.2,1.5,2.6,1.5,4.2,0,2.4-.8,4.3-2.4,5.7s-3.7,2.1-6.4,2.1-3.5-.3-4.9-1c-1.4-.7-2.4-1.6-3-2.9Z"/>
  </g>
</svg>